<?xml version="1.0" standalone="no"?>
<!DOCTYPE svg PUBLIC "-//W3C//DTD SVG 20010904//EN"
 "http://www.w3.org/TR/2001/REC-SVG-20010904/DTD/svg10.dtd">
<svg version="1.0" xmlns="http://www.w3.org/2000/svg"
 width="260.000000pt" height="260.000000pt" viewBox="0 0 260.000000 260.000000"
 preserveAspectRatio="xMidYMid meet">
<metadata>
Created by potrace 1.10, written by Peter Selinger 2001-2011
</metadata>
<g transform="translate(0.000000,260.000000) scale(0.100000,-0.100000)"
fill="#000000" stroke="none">
<path d="M551 1938 c-82 -11 -191 -54 -264 -102 -152 -101 -277 -309 -277
-460 0 -38 1 -39 15 -20 8 12 16 32 19 45 3 13 9 39 15 57 5 18 11 36 12 40
15 50 67 139 110 188 90 101 162 149 293 194 71 25 89 27 195 24 99 -3 156 -8
156 -14 0 -1 7 -3 15 -5 105 -22 249 -110 348 -213 71 -73 192 -243 192 -269
0 -7 4 -13 9 -13 5 0 13 -9 16 -20 3 -11 12 -26 18 -33 7 -7 20 -28 30 -48 28
-54 136 -178 202 -232 58 -46 174 -112 183 -103 2 3 24 -2 49 -9 56 -17 144
-5 220 30 52 23 163 126 163 150 0 7 7 27 16 45 22 43 29 152 15 220 -16 74
-73 155 -147 207 -32 23 -61 39 -63 37 -2 -2 -9 0 -16 6 -19 16 -121 27 -177
20 -29 -4 -71 -16 -93 -25 -22 -10 -43 -17 -47 -17 -5 1 -8 -2 -8 -7 0 -5 -10
-11 -22 -15 -13 -3 -34 -16 -48 -29 -14 -12 -36 -30 -49 -39 l-24 -17 -53 79
c-29 44 -59 87 -68 95 -23 24 -4 47 85 105 116 77 221 111 352 116 148 6 241
-20 366 -100 62 -40 153 -135 189 -198 30 -52 41 -80 77 -201 22 -70 35 -81
35 -30 0 179 -160 408 -350 502 -111 54 -208 75 -325 68 -154 -9 -310 -73
-442 -179 l-62 -51 44 -56 c24 -31 66 -92 92 -137 l49 -81 57 52 c173 158 388
171 526 34 186 -186 85 -499 -177 -549 -67 -12 -137 1 -222 41 -50 24 -89 56
-165 133 -86 88 -114 125 -200 270 -185 311 -362 458 -617 510 -84 17 -148 19
-247 4z"/>
<path d="M594 1660 c-28 -4 -61 -13 -75 -21 -13 -7 -30 -14 -38 -15 -27 -5
-141 -117 -141 -139 0 -8 -4 -15 -9 -15 -4 0 -16 -25 -26 -56 -26 -83 -17
-201 20 -274 67 -133 221 -219 355 -199 96 14 181 43 200 68 3 4 29 24 59 45
l54 38 28 -33 c16 -19 29 -39 29 -46 0 -6 3 -13 8 -15 4 -2 22 -25 40 -52 l32
-50 -27 -29 c-16 -15 -44 -38 -63 -50 -19 -11 -37 -23 -40 -26 -14 -16 -123
-61 -180 -76 -161 -42 -314 -26 -454 47 -44 22 -94 56 -111 74 -18 19 -38 34
-45 34 -7 0 -10 3 -7 6 4 4 -1 14 -11 23 -46 42 -129 200 -139 264 -2 15 -12
44 -21 65 l-17 37 -3 -33 c-5 -54 17 -138 60 -225 58 -116 171 -228 288 -286
260 -127 552 -77 794 137 l37 32 -34 43 c-30 36 -105 149 -143 213 -10 17 -16
14 -72 -38 -173 -160 -383 -175 -521 -37 -186 187 -86 499 177 549 168 31 364
-98 529 -350 42 -63 97 -146 122 -185 54 -82 173 -210 252 -270 164 -127 345
-181 523 -156 163 23 305 96 410 212 92 103 157 250 156 359 l-1 45 -15 -35
c-9 -19 -24 -63 -34 -97 -19 -66 -63 -155 -92 -187 -10 -11 -18 -23 -18 -27 0
-10 -85 -94 -121 -120 -45 -31 -160 -85 -209 -97 -145 -34 -271 -23 -410 37
-95 41 -155 82 -233 156 -29 27 -55 48 -59 47 -5 -1 -8 4 -8 12 0 7 -14 25
-32 40 -17 14 -28 26 -23 26 5 0 -1 9 -12 19 -12 11 -54 73 -94 138 -40 65
-86 136 -103 158 -17 22 -38 49 -46 60 -34 45 -135 143 -142 139 -4 -3 -8 -1
-8 5 0 10 -112 82 -133 85 -7 1 -17 4 -22 8 -9 5 -43 12 -110 22 -11 2 -43 0
-71 -4z"/>
</g>
</svg>
